<?xml version="1.0" standalone="no"?>
<!DOCTYPE svg PUBLIC "-//W3C//DTD SVG 20010904//EN" "http://www.w3.org/TR/2001/REC-SVG-20010904/DTD/svg10.dtd">
<svg xmlns="http://www.w3.org/2000/svg" 
    xmlns:xlink="http://www.w3.org/1999/xlink"
    width="3.5rem"
    height="3.5rem"
    viewBox="0 0 737.28 737.28"
    >
<defs/>
<circle id="shape0" transform="matrix(0.978967495219885 0 0 0.978967495219885 7.75342529296867 7.75342529296871)" r="368.64" cx="368.64" cy="368.64" fill="#ffffff" fill-rule="evenodd" stroke="#000000" stroke-width="15.12" stroke-linecap="square" stroke-linejoin="bevel"/><ellipse id="shape1" transform="matrix(0.587380497131931 0 0 0.587380497131931 60.732 60.732)" rx="524.2053515625" ry="524.2053515625" cx="524.2053515625" cy="524.2053515625" fill="#000000" fill-rule="evenodd" stroke="#ffffff" stroke-width="24.48" stroke-linecap="square" stroke-linejoin="bevel"/><ellipse id="shape01" transform="matrix(0.863000324515019 0.858664889509828 -0.848010262508368 0.852291901855399 386.660531115126 140.81661437523)" rx="69.84" ry="70.2" cx="69.84" cy="70.2" fill="#ffffff" fill-rule="evenodd" stroke="none" stroke-width="1" stroke-linecap="square" stroke-linejoin="bevel"/><path id="shape011" transform="matrix(0.14596819431858 -0.146705193847762 0.146705193847762 0.14596819431858 304.746366143633 263.549473151171)" fill="#000000" stroke="#ffffff" stroke-width="0" stroke-linecap="square" stroke-linejoin="bevel" d="M517.415 258.754C374.188 258.754 258.371 375.477 258.371 517.415C258.371 375.477 143.226 258.661 0 258.661C143.226 258.661 259.043 141.938 259.043 0C259.043 141.938 374.188 258.754 517.415 258.754Z" sodipodi:nodetypes="ccccc"/><ellipse id="shape012" transform="matrix(0.839372443821875 0.871204161055711 -0.860393942201336 0.828957204520159 261.199299721841 264.221811437784)" rx="69.84" ry="70.2" cx="69.84" cy="70.2" fill="#ffffff" fill-rule="evenodd" stroke="#000000" stroke-width="0" stroke-linecap="square" stroke-linejoin="bevel"/><path id="shape0111" transform="matrix(0.157265025341523 -0.151518937293255 0.151518937293255 0.157265025341523 185.899930610434 377.754092592467)" fill="#000000" stroke="#ffffff" stroke-width="0" stroke-linecap="square" stroke-linejoin="bevel" d="M490.336 245.212C354.605 245.212 244.849 355.826 244.849 490.336C244.849 355.826 135.731 245.124 0 245.124C135.731 245.124 245.486 134.51 245.486 0C245.486 134.51 354.605 245.212 490.336 245.212Z" sodipodi:nodetypes="ccccc"/><path id="shape0112" transform="matrix(-0.00175553935711398 -0.237780027622786 0.237780027622786 -0.00175553935711398 403.954690780839 459.332974628347)" fill="#fefefe" stroke-opacity="0" stroke="#000000" stroke-width="0" stroke-linecap="square" stroke-linejoin="bevel" d="M735.497 371.154C531.903 371.154 367.271 538.579 367.271 742.173C367.271 538.579 203.594 371.02 0 371.02C203.594 371.02 368.226 203.594 368.226 0C368.226 203.594 531.903 371.154 735.497 371.154Z" sodipodi:nodetypes="ccccc"/><path id="shape01111" transform="matrix(0.00409731838659327 -0.220182182549388 0.220182182549388 0.00409731838659327 285.426581824694 572.454172026901)" fill="#fefefe" stroke-opacity="0" stroke="#000000" stroke-width="0" stroke-linecap="square" stroke-linejoin="bevel" d="M735.497 371.154C531.903 371.154 367.271 538.579 367.271 742.173C367.271 538.579 203.594 371.02 0 371.02C203.594 371.02 368.226 203.594 368.226 0C368.226 203.594 531.903 371.154 735.497 371.154Z" sodipodi:nodetypes="ccccc"/><path id="shape013" transform="matrix(0.839372443821875 0.871204161055711 -0.860393942201336 0.828957204520159 325.604324686926 201.484876711622)" sodipodi:type="arc" sodipodi:rx="71.0445093208756" sodipodi:ry="70.2" sodipodi:cx="0" sodipodi:cy="70.2" sodipodi:start="4.71238898038469" sodipodi:end="1.5707963267949" sodipodi:arc-type="chord" d="M-1.30502e-14 140.4C39.2368 140.4 71.0445 108.97 71.0445 70.2C71.0445 31.4296 39.2368 1.18696e-14 2.17504e-14 0Z" fill="#ffffff" fill-rule="evenodd" stroke="#000000" stroke-width="0" stroke-linecap="square" stroke-linejoin="bevel"/><path id="shape014" transform="matrix(-0.854805166425333 -0.856067121866541 0.845444728913095 -0.844198432275083 321.894316708507 366.352540190219)" sodipodi:type="arc" sodipodi:rx="27.2040550276694" sodipodi:ry="26.8806791854532" sodipodi:cx="7.74833026072245e-14" sodipodi:cy="26.8806791854532" sodipodi:start="4.71238898038469" sodipodi:end="1.5707963267949" sodipodi:arc-type="chord" d="M0 53.7614C9.71907 53.7614 18.6999 48.6379 23.5594 40.321C28.4189 32.0041 28.4189 21.7573 23.5594 13.4403C18.6999 5.12343 9.71907 2.94014e-15 8.58119e-14 0Z" fill="#ffffff" fill-rule="evenodd" stroke="#000000" stroke-width="0" stroke-linecap="square" stroke-linejoin="bevel"/>
</svg>
